<?xml version="1.0" encoding="UTF-8" standalone="no"?><!DOCTYPE svg PUBLIC "-//W3C//DTD SVG 1.1//EN" "http://www.w3.org/Graphics/SVG/1.1/DTD/svg11.dtd"><svg width="100%" height="100%" viewBox="0 0 1658 1658" version="1.1" xmlns="http://www.w3.org/2000/svg" xmlns:xlink="http://www.w3.org/1999/xlink" xml:space="preserve" xmlns:serif="http://www.serif.com/" style="fill-rule:evenodd;clip-rule:evenodd;stroke-linecap:round;stroke-linejoin:round;stroke-miterlimit:1.5;"><rect id="Plan-de-travail1" serif:id="Plan de travail1" x="-3235.75" y="-2532.95" width="12500" height="12500" style="fill:none;"/><g id="Plan-de-travail11" serif:id="Plan de travail1"><g id="Manakit-filigrame" serif:id="Manakit filigrame"></g><g id="Manakit-Logo" serif:id="Manakit Logo"></g><g><path d="M1622.01,432.064c0,-218.915 -177.731,-396.647 -396.647,-396.647l-793.296,-0c-218.915,-0 -396.647,177.732 -396.647,396.647l-0,793.296c-0,218.916 177.732,396.647 396.647,396.647l793.296,0c218.916,0 396.647,-177.731 396.647,-396.647l0,-793.296Z" style="fill:#391b10;stroke:#5b5b5b;stroke-width:22.92px;"/><path d="M1622.01,432.064c0,-218.915 -177.731,-396.647 -396.647,-396.647l-793.296,-0c-218.915,-0 -396.647,177.732 -396.647,396.647l-0,793.296c-0,218.916 177.732,396.647 396.647,396.647l793.296,0c218.916,0 396.647,-177.731 396.647,-396.647l0,-793.296Z" style="fill:none;"/><clipPath id="_clip1"><path d="M1622.01,432.064c0,-218.915 -177.731,-396.647 -396.647,-396.647l-793.296,-0c-218.915,-0 -396.647,177.732 -396.647,396.647l-0,793.296c-0,218.916 177.732,396.647 396.647,396.647l793.296,0c218.916,0 396.647,-177.731 396.647,-396.647l0,-793.296Z"/></clipPath><g clip-path="url(#_clip1)"><g><path d="M703.768,-94.19c-25.905,25.417 -23.129,85.05 -22.204,123.176c0.886,36.514 14.407,71.886 27.755,105.579c16.653,42.036 58.377,93.506 72.164,146.638c15.728,60.61 25.559,144.347 22.204,217.024c-3.701,80.162 -36.082,185.741 -44.408,263.948c-7.243,68.03 -11.552,137.128 -5.551,205.293c7.401,84.072 36.081,224.845 49.959,299.141c9.212,49.316 27.755,98.736 33.306,146.638c5.398,46.576 0,93.848 0,140.772c0,50.346 4.626,123.176 0,161.302c-2.95,24.318 -47.184,67.453 -27.755,67.453c19.429,0 120.201,-18.059 144.328,-67.453c29.605,-60.611 31.456,-216.535 33.306,-296.209c1.419,-61.094 -13.919,-121.348 -22.204,-181.831c-10.177,-74.296 -33.344,-175.098 -38.858,-263.948c-7.401,-119.265 9.252,-326.513 -5.551,-451.644c-12.2,-103.135 -69.388,-202.849 -83.266,-299.141c-13.231,-91.812 0,-220.934 0,-278.612c0,-22.484 20.54,-61.576 0,-67.453c-22.204,-6.355 -107.32,3.91 -133.225,29.327Z" style="fill:#462113;"/><path d="M699.604,-98.433c-11.79,11.525 -18.324,29.53 -21.588,49.692c-4.207,25.978 -3.132,55.559 -2.631,77.877c0.339,15.109 2.765,30.034 6.446,44.735c5.394,21.542 13.499,42.601 21.554,63.045c11.811,29.974 36.249,64.757 54.387,101.492c7.194,14.569 13.373,29.452 17.242,44.474c7.992,31.031 14.405,68.175 18.27,106.757c3.616,36.102 4.996,73.464 3.326,108.261c-1.17,24.374 -5.042,51.118 -10.067,78.721c-11.473,63.029 -28.918,130.461 -34.799,184.752c-3.702,34.166 -6.649,68.602 -7.97,103.057c-1.328,34.644 -1.009,69.308 1.925,103.745c2.88,33.805 9.157,76.732 16.521,120.862c11.003,65.936 24.442,134.57 32.635,179.222c6.305,34.368 17.094,68.807 24.947,102.734c3.371,14.559 6.194,29.019 7.818,43.34c1.55,13.673 2.139,27.406 2.213,41.17c0.177,32.774 -2.545,65.727 -2.626,98.516c-0.083,33.329 1.817,76.517 1.777,112.962c-0.02,18.137 -0.505,34.562 -2.045,47.12c-1.176,9.59 -10.032,22.208 -17.517,33.575c-7.943,12.063 -14.483,23.171 -15.203,29.313c-0.493,4.215 0.56,7.572 2.388,10.148c2.19,3.087 5.946,5.859 12.631,5.868c12.925,0.005 60.304,-7.454 99.555,-26.293c23.716,-11.383 44.306,-27.029 54.006,-46.881c13.019,-26.73 21.03,-71.374 25.791,-120.2c6.206,-63.653 7.175,-134.507 8.175,-180.289c0.403,-18.806 -0.735,-37.532 -2.772,-56.208c-4.637,-42.519 -13.965,-84.777 -19.847,-127.151c-7.33,-52.694 -21.219,-118.71 -30.718,-184.347c-3.859,-26.662 -6.993,-53.26 -8.639,-78.86c-5.275,-82.05 0.782,-205.848 0.116,-315.761c-0.303,-49.984 -1.992,-97.12 -6.711,-136.265c-2.518,-20.829 -6.831,-41.518 -12.253,-62.065c-21.446,-81.259 -60.54,-160.26 -71.823,-237.164c-4.918,-33.519 -6.271,-72.071 -6.044,-110.252c0.392,-66.008 5.5,-130.915 5.407,-167.333c-0.024,-9.223 3.655,-21.352 6.208,-32.669c2.152,-9.539 3.503,-18.583 2.325,-25.416c-1.322,-7.669 -5.309,-13.167 -13.286,-15.428c-12.149,-3.443 -42.346,-2.356 -72.183,3.56c-27.231,5.4 -54.048,14.868 -66.941,27.583l0,0.001Zm118.573,1870.29c2.287,-3.906 5.213,-8.332 8.27,-13.001c9.265,-14.15 19.17,-30.393 20.601,-42.314c1.586,-13.216 2.117,-30.495 2.066,-49.576c-0.097,-36.443 -2.251,-79.618 -2.334,-112.946c-0.081,-32.835 2.476,-65.848 2.136,-98.666c-0.15,-14.444 -0.851,-28.852 -2.549,-43.192c-1.777,-15.014 -4.786,-30.174 -8.408,-45.426c-7.985,-33.621 -18.963,-67.713 -25.44,-101.776c-8.465,-44.531 -22.349,-112.969 -33.731,-178.738c-7.548,-43.609 -13.994,-86.037 -17.032,-119.46c-3.069,-33.769 -3.596,-67.777 -2.453,-101.772c1.147,-34.102 3.973,-68.189 7.51,-102.012c5.649,-53.995 22.79,-121.089 33.966,-183.791c5.041,-28.278 8.879,-55.675 9.986,-80.632c1.572,-35.466 0.036,-73.536 -3.784,-110.312c-4.083,-39.302 -10.769,-77.126 -19.029,-108.718c-4.149,-15.869 -10.704,-31.598 -18.368,-46.976c-18.106,-36.335 -42.519,-70.675 -54.331,-100.334c-7.931,-19.912 -15.941,-40.414 -21.28,-61.407c-3.506,-13.789 -5.86,-27.788 -6.23,-41.971c-0.566,-21.68 -1.794,-50.416 2.2,-75.668c2.751,-17.395 7.86,-33.139 17.989,-43.114l-0,-0c11.73,-11.45 36.291,-19.286 60.965,-24.048c27.462,-5.299 55.208,-6.686 66.362,-3.464c4.617,1.334 4.771,5.893 4.436,11.21c-0.946,15.005 -9.153,35.91 -9.189,50.184c-0.093,36.399 -5.53,101.245 -6.259,167.216c-0.429,38.921 0.783,78.227 5.622,112.423c10.961,77.445 49.753,157.187 70.917,239.068c5.135,19.866 9.21,39.861 11.539,59.985c4.483,38.635 5.916,85.141 5.995,134.451c0.177,110.281 -6.415,234.464 -1.488,316.812c1.56,26.073 4.62,53.17 8.431,80.333c9.209,65.636 22.822,131.666 29.926,184.356c4.898,36.236 12.327,72.394 17.168,108.696c3.171,23.785 5.222,47.632 4.622,71.607c-1.117,45.395 -2.266,115.65 -8.576,178.754c-4.595,45.943 -11.761,88.044 -24.07,113.174c-7.872,16.121 -25.178,28.138 -44.43,37.39c-29.469,14.162 -63.911,21.506 -81.726,23.655Z" style="fill:#29140a;"/><path d="M681,-100.055c-8.48,-22.849 -43.341,-28.619 -66.049,-23.462c-32.287,7.331 -116.572,38.125 -127.674,67.453c-11.103,29.328 48.109,71.853 61.061,108.512c12.449,35.233 14.118,73.932 16.653,111.445c2.776,41.058 -2.499,90.015 0,134.906c4.626,83.095 17.579,246.352 27.756,363.662c9.849,113.529 24.054,259.06 33.306,340.2c5.604,49.146 18.504,104.602 22.204,146.638c3.085,35.042 1.479,70.421 0,105.579c-1.85,43.991 -14.855,105.583 -11.102,158.369c5.457,76.74 17.94,245.374 43.845,302.074c16.994,37.198 80.96,58.166 111.585,38.126c30.625,-20.041 68.16,-99.932 72.164,-158.369c6.899,-100.692 -27.077,-296.843 -30.767,-445.779c-4.626,-186.719 28.509,-466.308 3.011,-674.534c-24.205,-197.681 -118.986,-475.107 -155.993,-574.82Z" style="fill:#5b2b19;"/><path d="M686.016,-101.917c-4.019,-10.886 -13.118,-18.554 -24.416,-23.204c-14.892,-6.131 -33.603,-6.95 -47.862,-3.738c-18.709,4.216 -54.613,16.146 -84.11,31.149c-23.409,11.906 -42.578,26.146 -47.705,39.62c-3.356,8.821 -1.702,18.707 3.433,29.192c6.505,13.28 18.711,27.794 30.599,42.445c11.2,13.804 22.155,27.704 26.785,40.879c4.86,13.83 8.007,28.207 10.202,42.831c3.321,22.115 4.47,44.792 5.937,67.049c0.563,8.547 0.77,17.441 0.771,26.571c0.005,34.704 -2.919,72.754 -1.001,108.276c1.977,36.607 5.541,88.758 9.765,145.692c5.371,72.386 11.807,152.506 17.397,218.218c4.469,53.058 9.879,113.102 15.283,170.306c6.168,65.297 12.332,126.893 17.146,170.183c4.269,38.443 12.972,80.749 18.297,117.503c1.471,10.158 2.68,19.884 3.453,28.972c1.177,13.797 1.605,27.645 1.61,41.51c0.008,20.994 -0.965,42.027 -1.894,62.981c-1.381,31.139 -8.39,71.1 -11.052,110.507c-1.121,16.602 -1.479,33.109 -0.395,48.854c3.049,43.84 8.304,117.579 17.114,183.449c6.789,50.751 15.827,96.876 27.22,121.834c9.215,20.163 30.554,36.375 54.244,44.78c25.347,8.994 53.016,8.816 70.766,-2.827c17.633,-11.565 37.853,-41.579 52.9,-76.793c12.321,-28.837 21.331,-61.056 23.187,-88.632c1.676,-25.06 0.869,-55.951 -1.402,-90.532c-6.88,-104.741 -27.16,-243.807 -30.147,-356.061c-3.501,-130.642 11.435,-306.813 11.777,-472.127c0.147,-71.163 -2.413,-140.323 -10.238,-203.024c-8.955,-71.754 -27.19,-153.962 -48.606,-234.402c-37.707,-141.629 -85.252,-277.772 -109.058,-341.461Zm-10.033,3.723c23.436,63.599 70.201,199.534 107.134,340.892c20.887,79.943 38.632,161.622 47.19,232.886c7.47,62.197 9.654,130.774 9.202,201.325c-1.061,165.491 -16.662,341.794 -13.687,472.592c2.581,112.457 22.34,251.838 28.869,356.782c2.096,33.689 2.829,63.779 1.116,88.182c-1.796,25.755 -10.407,55.798 -21.979,82.71c-13.422,31.216 -30.594,58.374 -46.261,68.603c-13.691,8.938 -35.03,7.714 -54.544,0.764c-18.839,-6.71 -36.289,-19.019 -43.616,-35.062c-10.915,-23.869 -19.21,-68.069 -25.795,-116.609c-8.878,-65.445 -14.395,-138.699 -17.56,-182.257c-1.098,-14.963 -0.807,-30.655 0.187,-46.442c2.492,-39.553 9.326,-79.683 10.57,-110.934c0.844,-21.211 1.737,-42.502 1.623,-63.749c-0.077,-14.339 -0.612,-28.657 -1.908,-42.918c-0.854,-9.386 -2.158,-19.43 -3.74,-29.919c-5.516,-36.562 -14.443,-78.631 -18.918,-116.882c-5.047,-43.197 -11.559,-104.665 -18.061,-169.83c-5.701,-57.125 -11.392,-117.091 -16.122,-170.08c-5.806,-65.649 -12.506,-145.694 -18.114,-218.013c-4.407,-56.818 -8.14,-108.865 -10.235,-145.401c-2.024,-35.289 0.78,-73.108 0.66,-107.591c-0.033,-9.407 -0.28,-18.571 -0.89,-27.376c-1.565,-22.583 -2.826,-45.594 -6.272,-68.027c-2.359,-15.365 -5.738,-30.462 -10.895,-44.982c-5.06,-14.246 -16.731,-29.41 -28.906,-44.312c-11.342,-13.883 -23.103,-27.55 -29.326,-40.147c-3.568,-7.223 -5.371,-13.954 -3.075,-20.049c4.417,-11.727 21.799,-23.234 42.115,-33.653c28.543,-14.638 63.298,-26.338 81.419,-30.485c10.293,-2.356 23.278,-2.292 34.797,0.85c11.261,3.071 21.246,9.011 25.022,19.132Z" style="fill:#371913;"/><path d="M426.215,-56.064c-23.448,7.227 -41.233,35.998 -44.409,61.588c-3.7,29.816 14.297,78.317 22.205,117.31c8.326,41.059 16.561,86.546 27.755,129.041c13.648,51.812 45.11,128.064 54.132,181.831c7.753,46.204 -0,93.848 -0,140.773l-0,146.637c-0,82.118 -14.107,239.509 -0,346.066c13.401,101.217 67.762,208.225 84.644,293.275c14.101,71.033 9.252,166.19 16.654,217.024c4.448,30.555 12.121,77.229 27.755,87.983c15.634,10.753 55.839,-1.417 66.049,-23.462c21.279,-45.947 66.696,-165.554 61.625,-252.217c-16.559,-283.011 -108.245,-1204.87 -160.98,-1445.85c-11.673,-53.337 -122.124,-10.265 -155.43,-0Z" style="fill:#793420;"/><path d="M424.464,-61.746c-13.221,4.046 -24.925,14.174 -33.581,27c-8.043,11.917 -13.446,26.125 -15.136,39.518c-1.345,10.659 -0.127,23.596 2.481,37.639c4.821,25.958 14.387,55.901 19.562,81.685c4.986,24.84 9.935,51.299 15.524,77.74c3.679,17.403 7.635,34.799 12.057,51.724c9.35,35.788 27.145,83.224 40.232,126.89c5.8,19.355 10.668,37.955 13.396,54.414c2.25,13.576 3.116,27.278 3.24,41.048c0.295,32.719 -3.554,65.814 -3.62,98.567l-0.296,146.637c-0.156,58.06 -7.434,153.714 -6.85,242.467c0.244,37.176 1.859,73.152 5.934,104.723c3.862,29.981 11.243,60.477 20.207,90.776c21.355,72.18 51.824,143.214 63.54,203.239c3.879,19.826 6.234,41.56 7.81,63.662c4.063,56.992 2.985,116.377 8.221,152.956c2.869,19.902 7.118,46.435 13.879,66.059c4.687,13.604 11.027,24.046 18.078,28.911c10.266,7.066 28.98,7.445 46.321,1.084c15.206,-5.579 28.972,-15.981 34.853,-28.676c13.611,-29.442 36.996,-88.705 51.017,-150.517c8.275,-36.479 13.26,-73.841 11.301,-106.601c-9.881,-162.543 -44.923,-535.707 -83.23,-869.674c-28.439,-247.932 -58.709,-474.265 -81.483,-576.963c-4.681,-21.107 -22.12,-29.957 -45.301,-30.952c-39.303,-1.688 -95.814,19.69 -118.156,26.644l-0,0Zm3.502,11.364c18.677,-5.699 61.885,-21.823 97.872,-25.028c24.106,-2.147 45.206,0.69 49.53,20.719c22.149,102.573 50.929,328.539 78.049,576.009c36.579,333.776 70.068,706.651 79.2,869.052c1.776,31.031 -3.189,66.383 -11.094,100.916c-13.763,60.122 -36.556,117.769 -49.84,146.401c-3.837,8.288 -13.369,14.393 -23.293,18.038c-6.296,2.312 -12.856,3.583 -18.633,3.44c-3.525,-0.088 -6.721,-0.582 -8.997,-2.146c-2.281,-1.564 -4.09,-4.443 -5.898,-7.938c-2.738,-5.292 -5.073,-11.91 -7.134,-19.153c-4.905,-17.244 -8.161,-37.855 -10.522,-53.904c-5.36,-36.209 -4.481,-95.045 -8.796,-151.478c-1.751,-22.905 -4.345,-45.421 -8.479,-65.952c-12.203,-60.466 -43.259,-131.957 -65.287,-204.613c-8.894,-29.337 -16.303,-58.863 -20.255,-87.923c-4.197,-30.926 -6.008,-66.187 -6.464,-102.632c-1.111,-88.679 5.704,-184.296 5.548,-242.31l-0.296,-146.637c-0.066,-32.8 3.65,-65.958 3.223,-98.724c-0.19,-14.498 -1.176,-28.92 -3.603,-43.206c-2.882,-16.966 -7.957,-36.136 -14.02,-56.077c-13.216,-43.461 -31.155,-90.655 -40.616,-126.281c-4.438,-16.71 -8.415,-33.887 -12.12,-51.072c-5.686,-26.373 -10.733,-52.768 -15.81,-77.546c-5.268,-25.712 -14.943,-55.556 -19.859,-81.443c-2.398,-12.628 -3.678,-24.257 -2.506,-33.854c1.418,-11.617 6.088,-23.941 13.019,-34.3c7.013,-10.482 16.32,-19.018 27.081,-22.358l0,-0Z" style="fill:#492215;"/><path d="M354.051,-12.073c-22.199,2.815 -47.911,10.222 -61.062,29.328c-14.802,21.507 -27.755,74.296 -27.755,99.714c0,20.129 19.236,34.785 27.755,52.789c10.177,21.507 29.862,48.496 33.307,76.252c7.401,59.633 9.252,216.046 11.102,281.544c1.049,37.132 -6.383,74.914 -0,111.445c11.102,63.543 59.294,198.45 66.613,269.814c5.443,53.081 -18.917,109.489 -22.7,158.369c-3.469,44.819 -5.721,90.346 0,134.906c8.409,65.499 41.121,202.361 50.455,258.083c4.205,25.102 3.701,58.655 5.551,76.252c1.042,9.908 0.112,21.181 5.551,29.327c14.803,22.169 52.735,92.932 83.266,103.685c30.531,10.753 102.037,-1.695 99.919,-39.164c-15.728,-278.296 -148.953,-1356.89 -194.287,-1630.61c-4.511,-27.236 -54.586,-14.663 -77.715,-11.731Z" style="fill:#381a0f;"/><path d="M353.303,-17.971c-13.906,1.734 -29.111,5.237 -42.075,11.982c-9.248,4.811 -17.362,11.268 -23.255,19.791c-7.705,11.145 -15.039,30.354 -20.369,50.126c-5.306,19.687 -8.648,39.908 -8.676,53.041c-0.015,7.256 2.056,13.922 5.299,20.268c6.183,12.097 17.121,22.888 22.95,35.272c6.173,13.116 15.879,28.276 23.275,44.402c4.447,9.693 8.049,19.744 9.29,29.912c2.397,19.64 4.156,49.838 5.512,83.808c2.753,68.951 3.814,153.351 4.96,197.126c0.677,25.871 -2.781,52.049 -2.781,77.905c-0,11.619 0.684,23.173 2.658,34.614c7.546,43.767 32.552,121.299 49.778,188.784c7.733,30.291 13.874,58.52 16.066,80.581c1.505,15.151 0.442,30.575 -1.845,46.004c-5.66,38.172 -18.621,76.373 -21.41,110.869c-2.197,27.108 -3.944,54.474 -3.791,81.74c0.103,18.415 1.078,36.783 3.349,54.999c2.582,20.655 7.525,48.355 13.405,78.387c12.8,65.375 30.037,141.918 36.335,180.171c1.124,6.828 1.873,14.307 2.427,21.903c1.468,20.142 1.558,41.075 2.865,53.765c0.754,7.27 0.6,15.22 2.276,22.301c0.987,4.17 2.54,8.083 4.884,11.605c10.134,15.215 31.026,53.004 53.044,79.188c11.743,13.965 24.083,24.61 35.25,28.545c19.205,6.767 53.144,5.517 78.289,-4.762c21.662,-8.855 36.412,-24.356 35.239,-44.662c-8.161,-139.181 -45.993,-478.381 -87.773,-817.055c-41.797,-338.811 -87.537,-677.089 -110.602,-813.993c-2.041,-12.107 -10.676,-18.508 -22.833,-20.987c-18.5,-3.772 -46.094,2.34 -61.741,4.37l0,0Zm1.496,11.796c12.621,-1.563 33.433,-6.102 50.144,-5.137c10.301,0.595 19.221,2.821 20.712,11.982c22.287,136.931 65.879,475.239 105.988,814.005c40.06,338.358 76.65,677.169 84.211,816.172c0.392,7.091 -3.538,12.633 -9.27,17.077c-6.264,4.856 -14.611,8.399 -23.601,10.862c-18.709,5.126 -40.299,5.592 -53.439,0.966c-11.135,-3.92 -22.92,-17.305 -34.408,-32.508c-18.446,-24.41 -35.143,-54.158 -43.83,-67.128c-1.433,-2.139 -2.063,-4.656 -2.493,-7.272c-0.934,-5.689 -0.846,-11.815 -1.449,-17.478c-1.346,-12.542 -1.489,-33.244 -3.039,-53.153c-0.639,-8.215 -1.513,-16.3 -2.771,-23.682c-6.534,-38.343 -24.212,-115.052 -37.455,-180.563c-5.967,-29.517 -11.039,-56.736 -13.715,-77.044c-2.31,-17.491 -3.365,-35.138 -3.593,-52.835c-0.345,-26.755 1.188,-53.622 3.151,-80.239c2.526,-34.152 15.169,-72.025 20.52,-109.832c2.376,-16.792 3.366,-33.571 1.625,-50.033c-1.686,-15.933 -5.374,-34.973 -10.233,-55.673c-16.953,-72.232 -48.381,-165.091 -57.149,-214.589c-1.875,-10.602 -2.531,-21.317 -2.576,-32.091c-0.107,-25.977 3.241,-52.292 2.453,-78.28c-1.329,-43.812 -2.742,-128.286 -5.782,-197.29c-1.516,-34.403 -3.441,-64.983 -5.951,-84.866c-1.448,-11.474 -5.464,-22.835 -10.529,-33.759c-7.483,-16.138 -17.273,-31.303 -23.518,-44.429c-5.94,-12.487 -16.993,-23.371 -23.291,-35.568c-2.342,-4.536 -3.961,-9.274 -3.971,-14.471c-0.026,-12.336 3.131,-31.327 8.039,-49.839c4.844,-18.272 11.357,-36.105 18.427,-46.423c4.737,-6.914 11.347,-12.083 18.812,-16.006c11.682,-6.139 25.429,-9.258 37.981,-10.876l0,0Z" style="fill:#492215;"/><path d="M220.826,81.776c-34.179,15.617 -85.117,32.26 -99.92,52.789c-13.642,18.92 6.542,47.094 11.103,70.386c5.551,28.35 18.196,65.832 22.204,99.714c5.551,46.924 9.252,136.862 11.102,181.831c1.206,29.3 -7.032,59.612 -0,87.983c10.177,41.058 45.072,103.927 61.062,158.368c16.653,56.7 44.499,119.982 38.857,181.831c-7.401,81.14 -69.388,220.935 -83.266,305.007c-10.81,65.487 -13.878,143.705 0,199.427c12.931,51.92 50.042,103.624 83.266,134.907c31.449,29.612 79.3,56.7 116.077,52.79c36.777,-3.911 106.158,-31.528 104.587,-76.252c-9.169,-261.015 -115.424,-1248.38 -159.602,-1489.84c-7.112,-38.87 -71.239,25.417 -105.47,41.059Z" style="fill:#492217;"/><path d="M215.884,70.961c-22.321,10.082 -51.677,20.6 -73.744,32.324c-13.963,7.418 -25.135,15.598 -31.277,24.038c-6.442,8.854 -8.04,19.08 -6.561,30.107c2.143,15.973 12.21,34.11 15.243,49.962c3.865,20.197 11.281,45.02 16.657,69.886c2.106,9.738 3.885,19.481 4.961,28.931c2.152,18.884 3.961,44.8 5.472,71.9c2.224,39.892 3.785,82.328 4.766,108.959c0.745,20.239 -3.094,40.943 -3.152,61.162c-0.029,10.034 0.812,19.956 3.18,29.69c2.482,10.202 6.385,21.688 11.146,34.032c14.526,37.664 37.441,83.851 49.373,125.133c9.766,33.793 23.596,69.936 31.72,106.716c5.091,23.054 7.868,46.36 5.611,69.422c-1.704,17.402 -6.107,37.595 -11.99,59.376c-21.422,79.3 -62.05,178.499 -73.375,244.106c-6.698,38.998 -10.724,82.414 -10.224,123.2c0.371,30.317 3.303,59.204 9.309,83.932c6.595,27.156 19.224,54.333 34.652,78.942c16.202,25.843 35.5,48.805 53.658,66.029c19.679,18.628 45.297,36.327 71.142,47.238c21.016,8.872 42.271,13.171 61.031,11.182c24.366,-2.602 61.392,-14.421 87.485,-33.959c22.044,-16.506 36.208,-38.395 35.261,-63.426c-5.146,-129.907 -34.871,-439.365 -69.48,-747.492c-35.032,-311.884 -75.039,-622.381 -98.002,-743.912c-1.904,-10.066 -6.564,-15.932 -12.143,-19.225c-5.726,-3.38 -13.155,-4.354 -21.903,-2.093c-23.84,6.161 -64.062,42.348 -88.816,53.839l-0,0.001Zm4.942,10.815c-34.179,15.617 -85.117,32.26 -99.92,52.789c-13.642,18.92 6.542,47.094 11.103,70.386c5.551,28.35 18.196,65.832 22.204,99.714c5.551,46.924 9.252,136.862 11.102,181.831c1.206,29.3 -7.032,59.612 -0,87.983c10.177,41.058 45.072,103.927 61.062,158.368c16.653,56.7 44.499,119.982 38.857,181.831c-7.401,81.14 -69.388,220.935 -83.266,305.007c-10.81,65.487 -13.878,143.705 0,199.427c12.931,51.92 50.042,103.624 83.266,134.907c31.449,29.612 79.3,56.7 116.077,52.79c36.777,-3.911 106.158,-31.528 104.587,-76.252c-9.169,-261.015 -115.424,-1248.38 -159.602,-1489.84c-7.112,-38.87 -71.239,25.417 -105.47,41.059Z" style="fill:#351911;"/><path d="M87.6,228.413c-31.456,16.619 -80.49,49.857 -94.368,76.252c-12.708,24.171 5.492,55.11 11.102,82.117c8.327,40.081 28.681,106.557 38.858,158.369c9.891,50.359 19.428,105.393 22.204,152.503c2.554,43.347 -5.551,86.729 -5.551,130.16c-0,48.879 -0,113.934 5.551,163.116c5.05,44.747 19.281,87.983 27.755,131.974c8.445,43.838 19.244,93.359 23.092,131.974c3.295,33.055 -16.505,87.983 0,99.714c16.505,11.731 78.929,0.015 99.031,-29.328c30.807,-44.969 74.322,-155.68 85.81,-240.486c14.301,-105.579 17.556,-263.313 -0,-392.989c-19.853,-146.638 -83.535,-409.608 -119.116,-486.838c-14.144,-30.701 -65.464,8.192 -94.368,23.462Z" style="fill:#5a2a1c;"/><path d="M84.823,223.157c-18.304,9.601 -42.457,24.71 -62.444,40.891c-15.491,12.542 -28.444,25.815 -34.728,37.682c-4.647,8.776 -5.816,18.328 -4.918,28.291c1.703,18.909 11.366,39.446 15.183,58.095c5.845,28.557 17.73,70.486 27.728,111.005c4.037,16.358 7.763,32.483 10.644,47.386c5.708,29.519 11.29,60.648 15.453,90.83c2.897,21.004 5.104,41.548 6.179,60.758c0.714,12.756 0.482,25.513 -0.194,38.271c-1.616,30.464 -5.704,60.937 -5.814,91.448c-0.132,29.25 -0.279,64.274 0.741,98.253c0.695,23.136 1.932,45.789 4.093,65.839c1.475,13.705 3.793,27.275 6.545,40.77c6.283,30.814 14.876,61.229 20.646,92.003c4.8,25.462 10.387,52.843 14.948,78.886c3.244,18.52 5.965,36.353 7.49,52.297c2.284,23.619 -7.461,58.451 -6.912,80.456c0.313,12.559 4.153,21.79 10.872,26.586c4.641,3.314 11.892,5.623 20.874,6.24c11.66,0.8 26.679,-1.045 41.435,-5.442c20.754,-6.184 40.766,-17.544 51.106,-32.631c16.972,-24.864 37.82,-69.328 55.09,-118.671c14.577,-41.651 26.626,-86.77 31.877,-126.317c7.331,-55.474 11.612,-125.23 11.423,-197.796c-0.172,-66.461 -4.087,-135.276 -12.754,-197.622c-11.185,-80.265 -35.59,-195.271 -61.332,-295.729c-21.467,-83.776 -43.892,-157.451 -60.286,-192.657c-6.62,-14.215 -19.192,-17.385 -34.644,-13.76c-21.607,5.069 -49.593,24.655 -68.301,34.638l-0,-0Zm5.554,10.513c18.003,-9.417 44.813,-28.274 65.554,-32.961c8.882,-2.007 16.506,-1.272 20.237,6.914c15.912,34.911 37.366,107.905 57.914,190.834c24.793,100.069 48.202,214.577 58.7,294.456c8.124,61.664 11.477,129.688 11.199,195.359c-0.303,71.641 -4.937,140.482 -12.531,195.201c-5.29,38.299 -17.285,81.936 -31.585,122.239c-16.771,47.266 -36.705,89.948 -53.066,113.746c-8.005,11.69 -23.955,19.769 -40.027,24.575c-12.182,3.643 -24.56,5.324 -34.192,4.691c-4.417,-0.29 -8.14,-0.826 -10.428,-2.445c-1.147,-0.811 -1.369,-2.398 -1.731,-4.16c-0.878,-4.276 -0.818,-9.599 -0.401,-15.532c1.567,-22.297 8.239,-51.79 6.091,-72.693c-1.7,-16.393 -4.634,-34.723 -8.124,-53.754c-4.783,-26.086 -10.604,-53.509 -15.622,-79.011c-6.096,-30.818 -15.007,-61.251 -21.625,-92.103c-2.773,-12.929 -5.143,-25.931 -6.695,-39.072c-2.315,-19.624 -3.753,-41.808 -4.651,-64.469c-1.337,-33.77 -1.485,-68.591 -1.617,-97.671c-0.109,-30.247 3.733,-60.483 5.137,-90.692c0.618,-13.308 0.78,-26.611 -0.043,-39.908c-1.211,-19.582 -3.579,-40.516 -6.659,-61.917c-4.377,-30.411 -10.186,-61.769 -16.117,-91.502c-3.013,-15.103 -6.886,-31.443 -11.079,-48.016c-10.19,-40.274 -22.278,-81.938 -28.263,-110.33c-3.304,-15.668 -10.86,-32.649 -14.133,-48.872c-2.063,-10.224 -2.429,-20.122 2.193,-28.977c5.608,-10.743 17.436,-22.597 31.349,-33.997c19.254,-15.777 42.552,-30.535 60.215,-39.933l0,-0Z" style="fill:#351911;"/><path d="M-40.074,392.648c-33.307,20.529 -61.062,69.408 -72.164,111.444c-11.102,42.037 3.751,93.846 5.551,140.773c1.85,48.252 -1.726,99.723 5.551,148.743c7.401,49.857 40.708,107.735 38.857,150.398c-1.704,39.306 -46.258,75.763 -49.959,105.579c-3.24,26.099 16.653,54.745 27.755,73.319c9.439,15.791 27.813,23.544 38.858,38.126c12.216,16.13 23.339,39.103 34.441,58.655c11.004,19.377 19.408,43.991 32.171,58.655c11.817,13.576 34.53,14.12 44.409,29.328c15.876,24.439 36.59,132.951 50.847,117.31c14.257,-15.641 34.696,-139.719 34.696,-211.159c-0,-101.196 -24.647,-263.873 -34.696,-396.017c-10.556,-138.817 -2.59,-366.026 -28.643,-436.885c-15.47,-42.075 -94.368,-8.799 -127.674,11.731Z" style="fill:#3b1c15;"/><path d="M-43.194,387.587c-17.889,10.947 -34.344,29.653 -47.63,51.26c-12.355,20.093 -21.98,42.679 -27.582,63.616c-3.691,13.798 -4.732,28.612 -4.33,43.968c0.839,32.04 8.091,66.524 9.221,98.696c1.19,33.844 -0.292,69.26 1.168,104.316c0.632,15.197 1.816,30.327 3.981,45.238c5.632,38.792 26.816,82.477 35.156,120.104c2.259,10.189 3.53,19.899 3.103,28.881c-0.499,10.342 -4.419,20.407 -9.621,30.203c-7.663,14.429 -18.152,28.227 -26.415,41.223c-7.471,11.751 -13.099,23.013 -14.448,33.456c-1.505,11.603 0.914,23.692 5.309,35.349c6.178,16.385 16.315,31.901 23.191,43.554c2.208,3.742 4.84,7.106 7.745,10.231c9.606,10.334 22.848,17.447 31.41,28.885c3.643,4.866 7.163,10.389 10.628,16.243c7.855,13.273 15.361,28.216 22.863,41.566c7.394,13.155 13.577,28.716 20.754,41.943c3.754,6.919 7.794,13.235 12.293,18.449c3.014,3.494 6.576,6.337 10.472,8.776c6.273,3.927 13.523,6.692 20.269,9.969c4.948,2.404 9.676,5 12.646,9.616c6.012,9.306 12.481,31.442 19.256,53.649c7.184,23.548 14.6,47.201 21.243,58.464c4.279,7.254 9.461,10.601 13.411,11.318c4.355,0.791 8.848,-0.189 12.931,-4.666c2.886,-3.165 6.324,-9.724 9.469,-19.155c5.246,-15.729 10.727,-40.615 15.37,-68.759c7.075,-42.892 12.254,-93.412 12.169,-130.161c-0.106,-34.185 -2.998,-75.328 -7.246,-119.933c-8.355,-87.727 -21.9,-188.954 -28.913,-276.726c-7.025,-87.494 -6.815,-210.179 -12.339,-306.577c-3.283,-57.294 -8.684,-105.428 -18.564,-131.937c-6.419,-17.221 -21.457,-24.272 -40.446,-24.38c-31.344,-0.179 -74.046,19.327 -96.524,33.32l-0,0.001Zm155.775,1022.26c-5.398,-11.5 -11.092,-30.353 -16.877,-49.048c-7.532,-24.339 -15.252,-48.413 -21.901,-58.591c-2.708,-4.129 -6.084,-7.48 -9.943,-10.289c-6.168,-4.491 -13.656,-7.526 -20.953,-10.796c-5.384,-2.413 -10.721,-4.868 -14.534,-9.21c-3.687,-4.199 -6.95,-9.335 -10.045,-14.923c-7.334,-13.24 -13.699,-28.83 -21.25,-41.995c-7.69,-13.401 -15.392,-28.413 -23.453,-41.723c-3.888,-6.419 -7.861,-12.455 -11.94,-17.778c-8.101,-10.572 -19.797,-17.776 -29.568,-26.673c-3.415,-3.111 -6.567,-6.458 -8.992,-10.463c-6.584,-10.875 -16.383,-25.285 -22.358,-40.613c-3.484,-8.936 -5.712,-18.178 -4.653,-27.122c0.998,-8.377 5.824,-17.269 11.717,-26.741c8.342,-13.411 18.913,-27.694 26.626,-42.569c6.216,-11.989 10.608,-24.369 11.092,-36.967c0.403,-10.258 -1.056,-21.338 -3.719,-32.951c-8.543,-37.257 -29.904,-80.423 -35.736,-118.86c-2.186,-14.409 -3.417,-29.037 -4.123,-43.733c-1.683,-35.009 -0.426,-70.398 -1.831,-104.198c-1.335,-32.138 -8.808,-66.546 -9.851,-98.555c-0.459,-14.071 0.338,-27.66 3.64,-40.327c5.182,-19.877 14.179,-41.335 25.767,-60.452c12.091,-19.949 26.962,-37.387 43.349,-47.56l0,-0c18.039,-11.008 49.775,-25.832 76.956,-29.732c18.88,-2.71 35.69,-0.6 41.423,15.21c9.355,25.795 13.905,72.56 16.608,128.153c4.695,96.579 3.48,219.43 9.775,307.103c6.346,87.901 19.06,189.323 26.812,277.184c3.879,43.97 6.526,84.515 6.42,118.192c-0.082,35.819 -5.452,85.024 -12.488,126.807c-4.521,26.845 -9.714,50.599 -14.733,65.606c-0.429,1.283 -0.838,2.49 -1.237,3.614Z" style="fill:#351911;"/></g><g id="_-Groupe-" serif:id="(Groupe)"><path d="M849.659,81.729c0.795,7.915 1.714,15.757 2.379,23.684c0.668,7.973 0.763,15.862 1.602,23.819c0.185,1.75 0.429,3.494 0.752,5.224c0.971,5.203 2.272,10.315 3.558,15.449c3.017,12.047 6.451,23.818 9.697,35.805c0.56,3.233 3.639,5.404 6.872,4.845c3.233,-0.56 5.404,-3.639 4.845,-6.872c-0.969,-12.381 -1.689,-24.622 -2.894,-36.982c-0.514,-5.267 -1.006,-10.52 -1.839,-15.746c-0.277,-1.738 -0.633,-3.463 -1.047,-5.173c-1.883,-7.777 -4.444,-15.239 -6.493,-22.973c-2.037,-7.69 -3.805,-15.385 -5.716,-23.107c-0.559,-3.234 -3.638,-5.404 -6.871,-4.845c-3.234,0.559 -5.405,3.638 -4.845,6.872Z" style="fill:#351911;"/><path d="M916.583,392.961c6.532,-21.529 6.254,-49.967 12.756,-71.526c2.783,-9.231 6.821,-17.109 13.999,-21.877c11.834,-7.861 34.118,-10.748 56.534,-10.767c22.657,-0.019 45.529,3.148 58.511,8.254c6.182,2.454 10.438,7.161 13.969,12.753c9.69,15.35 14.185,36.926 24.352,52.09c14.375,21.089 41.86,51.776 62.33,80.308c8.955,12.481 16.649,24.425 20.663,35.06c4.203,11.029 5.281,22.785 4.768,34.755c-0.812,18.931 -5.486,38.366 -9.33,56.634c-3.759,17.946 -9.247,38.203 -16.238,58.517c-6.604,19.191 -14.521,38.436 -23.617,55.804c-5.918,11.327 -12.976,22.432 -20.654,33.419c-17.647,25.25 -38.466,49.881 -56.336,75.089c-1.932,2.652 -1.347,6.374 1.305,8.306c2.652,1.932 6.374,1.347 8.306,-1.305c18.545,-24.782 40.026,-48.912 58.348,-73.743c8.346,-11.31 16.03,-22.77 22.54,-34.485c9.887,-17.832 18.618,-37.635 25.946,-57.43c7.728,-20.874 13.866,-41.737 18.177,-60.241c4.45,-19.183 9.714,-39.6 10.945,-59.551c0.906,-14.69 -0.397,-29.129 -5.33,-42.763c-4.419,-12.095 -12.632,-25.95 -22.813,-40.065c-20.488,-28.408 -48.757,-58.304 -63.42,-79.114c-10.494,-14.651 -15.516,-35.835 -25.54,-50.688c-5.731,-8.492 -12.842,-15.227 -22.53,-18.738c-16.896,-6.193 -48.676,-9.391 -77.367,-7.245c-20.918,1.565 -40.163,6.028 -51.272,13.706c-9.595,6.634 -15.422,17.049 -18.958,29.612c-6.112,21.717 -5.311,50.197 -11.454,71.884c-0.923,3.149 0.883,6.455 4.032,7.378c3.149,0.924 6.455,-0.883 7.378,-4.031Z" style="fill:#351911;"/><path d="M1079.03,100.417c9.946,24.016 18.327,49.91 28.388,73.788c4.613,10.948 9.586,21.469 15.184,31.228c5.25,9.214 11.347,17.849 17.81,26.249c14.442,18.772 30.951,36.167 44.877,55.342c8.406,11.383 18.397,23.861 28.82,36.705c9.489,11.694 19.321,23.708 28.082,35.897c7.726,10.749 14.734,21.536 19.937,32.279c6.458,13.216 11.343,28.118 15.173,43.233c6.261,24.704 9.765,49.941 12.501,69.627c1.059,7.54 1.415,15.119 1.369,22.727c-0.112,18.439 -2.426,37.004 -2.731,55.455c-0.117,3.279 2.45,6.037 5.729,6.154c3.279,0.117 6.037,-2.45 6.154,-5.729c1.015,-18.498 4.044,-37.034 4.864,-55.527c0.368,-8.306 0.279,-16.596 -0.562,-24.874c-2.093,-20.282 -4.775,-46.285 -10.33,-71.833c-3.587,-16.496 -8.415,-32.774 -14.932,-47.306c-7.047,-15.527 -17.237,-31.389 -28.668,-46.781c-7.997,-10.767 -16.553,-21.342 -24.97,-31.423c-8.921,-10.685 -17.726,-20.762 -25.158,-30.227c-14.881,-18.685 -32.37,-35.39 -47.65,-53.732c-6.32,-7.586 -12.234,-15.462 -17.408,-23.878c-5.564,-9.109 -10.543,-18.964 -15.204,-29.226c-10.696,-23.55 -19.768,-49.158 -30.353,-72.849c-1.298,-3.014 -4.798,-4.408 -7.812,-3.11c-3.014,1.297 -4.408,4.797 -3.11,7.811Z" style="fill:#351911;"/><path d="M1366.27,263.974c-0.829,18.066 -2.501,36.117 -3.247,54.183c-0.325,7.886 -0.47,15.771 -0.305,23.663c0.333,15.966 1.243,34.6 2.513,53.813c1.189,17.985 2.695,36.466 4.637,53.728c2.387,21.424 5.245,44.884 9.022,67.169c2.685,15.847 5.894,31.081 9.324,44.637c1.597,5.991 3.49,11.886 5.624,17.702c8.043,21.913 19.234,42.775 25.988,65.138c6.128,19.995 14.833,47.5 21.569,73.504c4.704,18.163 8.489,35.554 9.565,49.017c0.571,7.091 -0.08,14.102 -1.405,21.075c-3.299,17.364 -10.414,34.48 -14.024,51.824c-0.725,3.2 1.284,6.387 4.484,7.113c3.2,0.725 6.387,-1.284 7.113,-4.484c4.249,-17.319 12,-34.288 15.937,-51.638c1.854,-8.168 2.86,-16.417 2.483,-24.804c-0.646,-14.21 -3.907,-32.67 -8.236,-51.951c-5.944,-26.47 -13.911,-54.498 -19.473,-74.874c-6.343,-22.868 -17.03,-44.383 -24.83,-66.776c-1.841,-5.283 -3.532,-10.611 -4.919,-16.035c-4.378,-16.144 -8.214,-34.82 -11.789,-53.932c-3.459,-18.496 -6.695,-37.384 -9.361,-54.928c-2.544,-16.924 -4.803,-35.054 -6.529,-52.727c-1.847,-18.917 -3.104,-37.291 -3.835,-53.037c-0.353,-7.604 -0.405,-15.209 -0.285,-22.819c0.284,-18.053 1.496,-36.113 1.864,-54.167c0.108,-3.28 -2.466,-6.03 -5.746,-6.139c-3.279,-0.109 -6.03,2.466 -6.139,5.745Z" style="fill:#351911;"/><path d="M1615.24,601.71c-0.369,32.063 0.166,64.148 -0.293,96.209c-0.196,13.658 -0.576,27.307 -1.283,40.949c-1.591,27.741 -2.374,56.602 -5.01,85.019c-1.733,18.694 -4.292,37.178 -8.448,55.001c-4.736,21.648 -11.626,44.361 -19.342,66.104c-8.198,23.098 -17.35,45.11 -26.929,63.205c-7.992,15.244 -17.935,29.435 -29.028,42.76c-11.244,13.507 -23.629,26.14 -36.348,38.083c-8.607,8.114 -18.313,15.987 -28.613,23.729c-23.091,17.355 -49.058,34.072 -72.313,51.391c-2.662,1.918 -3.267,5.637 -1.349,8.299c1.917,2.663 5.636,3.268 8.298,1.35c23.831,-16.593 50.355,-32.495 74.022,-49.13c11.029,-7.751 21.432,-15.671 30.702,-23.869c13.557,-12.035 26.779,-24.806 38.849,-38.509c12.313,-13.978 23.388,-28.945 32.428,-45.078c10.368,-18.677 20.707,-41.323 29.423,-65.364c8.167,-22.527 14.868,-46.269 19.643,-68.783c3.716,-18.792 5.763,-38.216 6.912,-57.835c1.682,-28.7 1.491,-57.783 2.142,-85.767c0.399,-13.837 0.467,-27.674 0.347,-41.515c-0.278,-32.082 -1.551,-64.166 -1.919,-96.249c0,-3.281 -2.664,-5.945 -5.945,-5.945c-3.281,-0 -5.945,2.664 -5.946,5.945Z" style="fill:#351911;"/><path d="M966.813,932.318c0.089,11.099 -1.327,22.358 -1.095,33.442c0.108,5.17 0.574,10.301 1.624,15.37c1.951,9.415 4.778,20.405 8.621,31.351c3.695,10.526 8.357,20.988 14.052,30.035c4.525,7.188 10.455,15.439 17.194,24.441c20.788,27.767 49.74,62.589 71.243,92.674c10.917,15.103 23.322,31.489 36.099,48.141c12.078,15.742 24.456,31.743 35.577,47.589c10.169,14.491 19.41,28.747 26.467,42.444c7.879,15.2 14.382,32.209 19.766,49.475c8.682,27.846 14.494,56.331 18.348,79.161c1.536,9.033 2.115,18.139 2.157,27.292c0.103,22.091 -2.752,44.413 -2.907,66.525c-0.075,3.281 2.528,6.005 5.808,6.08c3.28,0.075 6.005,-2.528 6.08,-5.808c0.857,-22.176 4.422,-44.478 5.019,-66.641c0.268,-9.942 -0.069,-19.851 -1.427,-29.714c-3.272,-23.553 -8.377,-52.973 -16.478,-81.814c-5.185,-18.456 -11.628,-36.653 -19.533,-52.989c-9.307,-19.068 -22.301,-39.389 -36.785,-59.612c-9.977,-13.929 -20.605,-27.856 -31.158,-41.297c-11.025,-14.041 -22.016,-27.504 -31.683,-40.206c-19.596,-25.475 -45.042,-54.199 -65.554,-79.193c-10.514,-12.812 -19.68,-24.632 -26.121,-34.366c-5.339,-8.067 -9.734,-17.454 -13.294,-26.9c-3.867,-10.263 -6.77,-20.589 -8.816,-29.445c-0.988,-4.277 -1.464,-8.621 -1.656,-13.002c-0.481,-11.012 0.68,-22.234 0.34,-33.264c-0.063,-3.281 -2.778,-5.893 -6.059,-5.829c-3.281,0.064 -5.893,2.779 -5.829,6.06Z" style="fill:#351911;"/><path d="M1230.92,1021.67c-6.413,-17.089 -18.471,-34.936 -24.777,-52.01c-2.687,-7.275 -4.289,-14.372 -3.447,-21.171c1.331,-10.761 7.504,-23.423 15.399,-34.664c8.127,-11.573 18.145,-21.668 27.164,-26.268c8.718,-4.448 20.068,-5.396 31.385,-3.986c11.144,1.388 22.285,5.163 31.07,10.684c12.681,8.026 30.496,23.608 43.993,40.34c8.884,11.013 15.953,22.461 17.728,32.47c1.263,7.146 -1.019,14.28 -4.438,21.567c-8.837,18.834 -25.386,38.177 -31.894,57.942c-5.467,16.81 -11.885,38.255 -17.342,59.653c-5.699,22.349 -10.346,44.64 -12.447,61.477c-1.593,13.107 -1.951,26.466 -1.068,39.749c0.88,13.246 2.973,26.414 6.198,39.178c4.768,18.792 13.344,46.802 22.966,74.647c9.468,27.395 19.937,54.626 28.691,72.838c5.412,11.261 11.989,21.922 19.341,32.093c10.746,14.868 23.111,28.708 35.664,41.972c13.812,14.586 30.539,33.243 46.802,45.995c9.097,7.133 18.113,12.463 26.451,14.666c8.202,2.166 16.258,1.259 24.223,-1.507c14.523,-5.044 28.733,-16.739 43.24,-22.096c3.09,-1.106 4.7,-4.512 3.595,-7.601c-1.106,-3.09 -4.512,-4.7 -7.601,-3.595c-14.503,5.026 -28.821,16.38 -43.333,21.095c-5.494,1.785 -11.015,2.492 -16.603,0.895c-8.882,-2.537 -18.413,-9.711 -28.019,-18.462c-13.287,-12.106 -26.459,-27.369 -37.661,-39.686c-11.83,-12.998 -23.473,-26.541 -33.549,-41.039c-6.603,-9.501 -12.518,-19.418 -17.325,-29.885c-8.219,-17.896 -17.908,-44.626 -26.686,-71.476c-8.968,-27.433 -16.961,-54.995 -21.336,-73.478c-2.773,-11.665 -4.482,-23.686 -5.14,-35.759c-0.657,-12.041 -0.247,-24.138 1.31,-35.995c1.695,-13.188 5.187,-29.827 9.288,-47.189c5.838,-24.715 12.988,-50.861 19.117,-70.521c5.877,-19.166 21.737,-37.968 29.831,-56.302c4.852,-10.991 7.226,-21.856 5.07,-32.471c-2.488,-12.27 -11.002,-26.449 -22.248,-39.762c-15.077,-17.849 -34.791,-34.362 -48.751,-42.797c-10.629,-6.468 -24.027,-10.879 -37.413,-12.35c-14.385,-1.581 -28.711,0.215 -39.692,6.018c-10.553,5.577 -22.452,17.382 -31.836,31.162c-9.046,13.285 -15.764,28.324 -17.14,40.935c-0.954,8.749 0.951,17.884 4.538,27.179c6.568,17.022 18.905,34.738 25.579,51.773c1.175,3.064 4.616,4.597 7.68,3.422c3.064,-1.175 4.597,-4.616 3.423,-7.68Z" style="fill:#351911;"/><path d="M1559.13,1043.57c-0.707,18.818 -3.166,37.679 -3.782,56.489c-0.275,8.434 -0.192,16.839 0.598,25.246c1.032,11.763 3.107,23.899 6.041,36.12c1.666,6.936 3.587,13.893 5.721,20.793c3.153,10.196 6.812,20.241 10.021,30.19c4.17,12.424 8.838,25.475 13.802,38.762c7.103,19.017 14.726,38.457 21.748,57.307c1.028,3.116 4.392,4.811 7.508,3.783c3.116,-1.028 4.812,-4.393 3.783,-7.509c-6.529,-22.583 -13.699,-46.076 -20.232,-68.578c-2.913,-10.03 -5.708,-19.831 -8.205,-29.278c-2.717,-9.836 -5.465,-19.893 -8.521,-29.854c-3,-9.78 -6.196,-19.477 -8.914,-29.093c-2.377,-8.412 -4.617,-16.664 -6.072,-24.838c-1.295,-7.635 -2.004,-15.313 -2.253,-23.048c-0.604,-18.732 0.983,-37.625 0.647,-56.376c0.032,-3.281 -2.606,-5.971 -5.887,-6.003c-3.281,-0.032 -5.971,2.606 -6.003,5.887Z" style="fill:#351911;"/><path d="M726.271,1582.58c16.642,-25.81 31.374,-52.956 48.354,-78.533c7.159,-10.783 14.805,-21.188 22.997,-31.214c8.788,-11.058 19.932,-23.711 31.412,-37.319c15.647,-18.548 32.184,-38.599 47.52,-55.98c13.735,-15.567 26.175,-29.219 35.425,-38.234c3.645,-3.572 7.823,-6.388 12.323,-8.765c11.671,-6.165 25.114,-9.827 36.927,-15.793c2.97,-1.395 4.249,-4.939 2.854,-7.909c-1.395,-2.97 -4.938,-4.249 -7.908,-2.854c-12.258,5.334 -26.019,8.271 -38.144,13.815c-5.929,2.71 -11.446,6.056 -16.369,10.357c-17.751,15.667 -47.269,45.59 -74.426,76.106c-6.375,7.164 -12.629,14.353 -18.458,21.478c-9.829,12.016 -18.531,23.76 -25.871,33.892c-7.795,10.998 -14.85,22.434 -21.671,34.055c-15.572,26.531 -29.522,54.123 -45.092,80.667c-1.719,2.795 -0.846,6.46 1.948,8.179c2.795,1.72 6.46,0.847 8.179,-1.948Z" style="fill:#351911;"/></g></g><path d="M1622.01,432.064c0,-218.915 -177.731,-396.647 -396.647,-396.647l-793.296,-0c-218.915,-0 -396.647,177.732 -396.647,396.647l-0,793.296c-0,218.916 177.732,396.647 396.647,396.647l793.296,0c218.916,0 396.647,-177.731 396.647,-396.647l0,-793.296Z" style="fill:none;stroke:#848484;stroke-width:70.83px;"/><g id="Manakit-Logo1" serif:id="Manakit Logo"><g><path id="Bouchon" d="M1242.12,505.435c12.402,-34.837 -5.813,-73.189 -40.65,-85.591l-126.241,-44.942c-34.837,-12.401 -73.189,5.813 -85.591,40.65l-30.781,154.185c-5.076,27.802 -18.721,60.839 67.468,91.522l53.492,19.043c39.117,13.925 76.326,-1.08 93.007,-34.393l69.296,-140.474Z" style="fill-opacity:0.1;stroke:#000;stroke-opacity:0.1;stroke-width:20.83px;"/></g><g id="Fiole"><path d="M1028.04,700.445c13.725,4.886 26.003,9.175 36.998,12.948c103.799,35.624 87.455,28.085 104.773,42.482c119.64,99.455 170.159,260.241 116.744,410.282c-70.207,197.213 -294.03,297.936 -499.51,224.786c-205.479,-73.151 -315.303,-292.652 -245.095,-489.865c52.397,-147.184 190.209,-244.737 342.397,-248.151c17.154,-0.385 18.818,3.063 143.693,47.518Z" style="fill-opacity:0.1;stroke:#000;stroke-opacity:0.1;stroke-width:4.17px;"/><path d="M1196.36,654.288l-265.32,-94.454l-33.091,92.954l265.32,94.453l33.091,-92.953Z" style="fill-opacity:0.1;"/><path d="M1217.94,661.974c4.245,-11.924 -1.98,-25.031 -13.903,-29.276l-265.32,-94.453c-11.923,-4.245 -25.03,1.98 -29.275,13.904l-33.091,92.953c-4.245,11.923 1.98,25.03 13.903,29.275l265.32,94.453c11.923,4.245 25.03,-1.98 29.275,-13.903l33.091,-92.953Zm-21.589,-7.686l-265.32,-94.454l-33.091,92.954l265.32,94.453l33.091,-92.953Z" style="fill-opacity:0.1;"/><path d="M1286.01,625.933c10.51,-29.523 -4.926,-62.025 -34.449,-72.535l-295.275,-105.118c-29.522,-10.51 -62.024,4.926 -72.534,34.449c-10.51,29.523 4.926,62.025 34.448,72.535l295.275,105.118c29.523,10.51 62.025,-4.926 72.535,-34.449Z" style="fill-opacity:0.1;"/><path d="M1286.01,625.933c10.51,-29.523 -4.926,-62.025 -34.449,-72.535l-295.275,-105.118c-29.522,-10.51 -62.024,4.926 -72.534,34.449c-10.51,29.523 4.926,62.025 34.448,72.535l295.275,105.118c29.523,10.51 62.025,-4.926 72.535,-34.449Zm-21.589,-7.686c-6.269,17.607 -25.653,26.813 -43.26,20.545c-0,0 -295.275,-105.117 -295.275,-105.117c-17.607,-6.269 -26.813,-25.653 -20.545,-43.26c6.268,-17.607 25.652,-26.813 43.26,-20.545c-0,-0 295.274,105.117 295.274,105.117c17.608,6.269 26.814,25.653 20.546,43.26Z" style="fill-opacity:0.1;"/></g><path d="M1028.04,700.445c13.725,4.886 26.003,9.175 36.998,12.948c103.799,35.624 87.455,28.085 104.773,42.482c119.64,99.455 170.159,260.241 116.744,410.282c-70.207,197.213 -294.03,297.936 -499.51,224.786c-205.479,-73.151 -315.303,-292.652 -245.095,-489.865c52.397,-147.184 190.209,-244.737 342.397,-248.151c17.154,-0.385 18.818,3.063 143.693,47.518Z" style="fill-opacity:0.1;"/><clipPath id="_clip2"><path d="M1028.04,700.445c13.725,4.886 26.003,9.175 36.998,12.948c103.799,35.624 87.455,28.085 104.773,42.482c119.64,99.455 170.159,260.241 116.744,410.282c-70.207,197.213 -294.03,297.936 -499.51,224.786c-205.479,-73.151 -315.303,-292.652 -245.095,-489.865c52.397,-147.184 190.209,-244.737 342.397,-248.151c17.154,-0.385 18.818,3.063 143.693,47.518Z"/></clipPath><g clip-path="url(#_clip2)"><g id="Mana"></g></g><path d="M1028.04,700.445c13.725,4.886 26.003,9.175 36.998,12.948c103.799,35.624 87.455,28.085 104.773,42.482c119.64,99.455 170.159,260.241 116.744,410.282c-70.207,197.213 -294.03,297.936 -499.51,224.786c-205.479,-73.151 -315.303,-292.652 -245.095,-489.865c52.397,-147.184 190.209,-244.737 342.397,-248.151c17.154,-0.385 18.818,3.063 143.693,47.518Zm-7.686,21.589c13.817,4.919 26.177,9.236 37.245,13.035c96.271,33.04 81.501,25.076 97.562,38.428c112.281,93.337 159.933,244.163 109.805,384.974c-66.055,185.547 -276.91,279.706 -470.235,210.882c-193.325,-68.823 -297.247,-275.042 -231.192,-460.589c49.176,-138.134 178.491,-229.722 321.322,-232.926c6.399,-0.144 9.798,0.905 23.354,5.659c18.153,6.364 49.759,18.33 112.139,40.537Z" style="fill-opacity:0.1;"/></g><g id="Manakit-Logo2" serif:id="Manakit Logo"><g><path id="Bouchon1" serif:id="Bouchon" d="M1150.82,375.402c13.8,-38.764 -6.468,-81.439 -45.231,-95.238l-140.47,-50.007c-38.763,-13.8 -81.438,6.467 -95.238,45.231l-34.25,171.563c-5.648,30.935 -20.831,67.696 75.072,101.838l59.521,21.189c43.525,15.495 84.929,-1.201 103.49,-38.27l77.106,-156.306Z" style="fill:url(#_Linear3);stroke:#000;stroke-width:20.83px;"/><path d="M889.15,251.398l33.331,11.867" style="fill:none;stroke:#000;stroke-width:20.83px;"/><path d="M1151.04,344.632l-66.664,-23.732" style="fill:none;stroke:#000;stroke-width:20.83px;"/><path d="M932.043,304.224c3.942,1.404 6.003,5.744 4.599,9.686c-1.403,3.942 -5.743,6.003 -9.685,4.599c-3.942,-1.403 -6.003,-5.743 -4.6,-9.685c1.404,-3.942 5.744,-6.003 9.686,-4.6Z"/><path d=""/><path d="M1070.78,321.423c3.942,1.404 6.003,5.744 4.6,9.686c-1.404,3.942 -5.744,6.003 -9.686,4.599c-3.942,-1.403 -6.003,-5.743 -4.599,-9.685c1.403,-3.942 5.743,-6.003 9.685,-4.6Z"/><path d=""/><path d="M991.525,287.844c3.943,1.404 6.004,5.743 4.6,9.685c-1.403,3.943 -5.743,6.004 -9.685,4.6c-3.942,-1.403 -6.003,-5.743 -4.6,-9.685c1.404,-3.942 5.743,-6.003 9.685,-4.6Z"/><path d=""/><path d="M945.071,410.8c6.57,2.339 10.005,9.572 7.666,16.142c-2.339,6.57 -9.572,10.005 -16.142,7.666c-6.57,-2.338 -10.005,-9.571 -7.666,-16.142c2.339,-6.57 9.572,-10.005 16.142,-7.666Z"/><path d="M945.071,410.8c6.57,2.339 10.005,9.572 7.666,16.142c-2.339,6.57 -9.572,10.005 -16.142,7.666c-6.57,-2.338 -10.005,-9.571 -7.666,-16.142c2.339,-6.57 9.572,-10.005 16.142,-7.666Zm-6.987,19.627c-4.263,-1.517 -6.491,-6.21 -4.974,-10.472c1.518,-4.262 6.21,-6.491 10.472,-4.973c4.262,1.517 6.491,6.209 4.973,10.472c-1.517,4.262 -6.209,6.49 -10.471,4.973Z"/><path d="M1005.03,528.718c6.57,2.339 10.005,9.572 7.666,16.142c-2.339,6.57 -9.572,10.005 -16.142,7.666c-6.57,-2.338 -10.005,-9.572 -7.666,-16.142c2.339,-6.57 9.572,-10.005 16.142,-7.666Z"/><path d="M1005.03,528.718c6.57,2.339 10.005,9.572 7.666,16.142c-2.339,6.57 -9.572,10.005 -16.142,7.666c-6.57,-2.338 -10.005,-9.572 -7.666,-16.142c2.339,-6.57 9.572,-10.005 16.142,-7.666Zm-6.987,19.627c-4.262,-1.518 -6.491,-6.21 -4.974,-10.472c1.518,-4.262 6.21,-6.491 10.472,-4.973c4.262,1.517 6.491,6.209 4.973,10.471c-1.517,4.263 -6.209,6.491 -10.471,4.974Z"/><path d="M1068.27,366.136c3.942,1.403 6.003,5.743 4.6,9.685c-1.403,3.942 -5.743,6.003 -9.685,4.6c-3.942,-1.404 -6.003,-5.744 -4.6,-9.686c1.403,-3.942 5.743,-6.003 9.685,-4.599Z"/><path d=""/></g><g id="Fiole1" serif:id="Fiole"><path d="M912.615,592.391c15.272,5.437 28.935,10.209 41.169,14.408c115.498,39.639 97.312,31.251 116.582,47.27c133.125,110.664 189.337,289.573 129.902,456.525c-78.12,219.441 -327.171,331.517 -555.81,250.122c-228.639,-81.396 -350.841,-325.637 -272.721,-545.078c58.303,-163.773 211.648,-272.322 380.99,-276.121c19.087,-0.428 20.938,3.408 159.888,52.874Z" style="fill:none;stroke:#000;stroke-width:4.17px;"/><path d="M1121.49,548.717c4.245,-11.923 -1.98,-25.03 -13.904,-29.275l-295.224,-105.099c-11.923,-4.245 -25.03,1.98 -29.275,13.904l-36.821,103.43c-4.244,11.923 1.98,25.03 13.904,29.275l295.224,105.099c11.923,4.245 25.03,-1.98 29.275,-13.903l36.821,-103.431Zm-21.59,-7.685l-295.223,-105.1l-36.821,103.431l295.223,105.099l36.821,-103.43Z"/><path d="M1099.9,541.032l-295.223,-105.1l-36.821,103.431l295.223,105.099l36.821,-103.43Z" style="fill:#fff;fill-opacity:0.39;"/><path d="M1121.49,548.717c4.245,-11.923 -1.98,-25.03 -13.904,-29.275l-295.224,-105.099c-11.923,-4.245 -25.03,1.98 -29.275,13.904l-36.821,103.43c-4.244,11.923 1.98,25.03 13.904,29.275l295.224,105.099c11.923,4.245 25.03,-1.98 29.275,-13.903l36.821,-103.431Zm-21.59,-7.685l-295.223,-105.1l-36.821,103.431l295.223,105.099l36.821,-103.43Z"/><path d="M1199.66,509.481c11.695,-32.851 -5.481,-69.016 -38.331,-80.711l-328.556,-116.965c-32.85,-11.695 -69.015,5.481 -80.71,38.332c-11.695,32.85 5.481,69.015 38.332,80.71l328.555,116.965c32.851,11.695 69.016,-5.481 80.71,-38.331Z" style="fill:#fff;fill-opacity:0.39;"/><path d="M1199.66,509.481c11.695,-32.851 -5.481,-69.016 -38.331,-80.711l-328.556,-116.965c-32.85,-11.695 -69.015,5.481 -80.71,38.332c-11.695,32.85 5.481,69.015 38.332,80.71l328.555,116.965c32.851,11.695 69.016,-5.481 80.71,-38.331Zm-21.589,-7.686c-7.453,20.935 -30.5,31.881 -51.435,24.428c-0,-0 -328.556,-116.965 -328.556,-116.965c-20.935,-7.453 -31.88,-30.501 -24.427,-51.436c7.452,-20.935 30.5,-31.88 51.435,-24.427c-0,-0 328.555,116.965 328.555,116.965c20.935,7.453 31.881,30.5 24.428,51.435Z"/><path d="M1199.66,509.481c11.695,-32.851 -5.481,-69.016 -38.331,-80.711l-328.556,-116.965c-32.85,-11.695 -69.015,5.481 -80.71,38.332c-11.695,32.85 5.481,69.015 38.332,80.71l328.555,116.965c32.851,11.695 69.016,-5.481 80.71,-38.331Zm-21.589,-7.686c-7.453,20.935 -30.5,31.881 -51.435,24.428c-0,-0 -328.556,-116.965 -328.556,-116.965c-20.935,-7.453 -31.88,-30.501 -24.427,-51.436c7.452,-20.935 30.5,-31.88 51.435,-24.427c-0,-0 328.555,116.965 328.555,116.965c20.935,7.453 31.881,30.5 24.428,51.435Z"/></g><path d="M912.615,592.391c15.272,5.437 28.935,10.209 41.169,14.408c115.498,39.639 97.312,31.251 116.582,47.27c133.125,110.664 189.337,289.573 129.902,456.525c-78.12,219.441 -327.171,331.517 -555.81,250.122c-228.639,-81.396 -350.841,-325.637 -272.721,-545.078c58.303,-163.773 211.648,-272.322 380.99,-276.121c19.087,-0.428 20.938,3.408 159.888,52.874Z" style="fill:none;"/><clipPath id="_clip4"><path d="M912.615,592.391c15.272,5.437 28.935,10.209 41.169,14.408c115.498,39.639 97.312,31.251 116.582,47.27c133.125,110.664 189.337,289.573 129.902,456.525c-78.12,219.441 -327.171,331.517 -555.81,250.122c-228.639,-81.396 -350.841,-325.637 -272.721,-545.078c58.303,-163.773 211.648,-272.322 380.99,-276.121c19.087,-0.428 20.938,3.408 159.888,52.874Z"/></clipPath><g clip-path="url(#_clip4)"><g id="Mana1" serif:id="Mana"><path d="M588.65,643.38c0,-0 -56.475,-5.089 -84.662,-3.314c-32.014,2.015 -107.423,15.408 -107.423,15.408l-81.732,139.159l122.797,122.257l185.781,141.25l147.412,22.97l111.661,-27.313c0,0 93.483,-40.023 79.825,-73.52c-26.018,-63.808 -123.595,-172.763 -123.595,-172.763c0,0 -127.644,-143.802 -250.064,-164.134" style="fill:url(#_Linear5);stroke:#000;stroke-width:16.67px;"/><path d="M1249.88,910.966c0,-0 -72.516,-49.627 -145.916,-57.312c-38.449,-4.025 -86.943,7.711 -128.165,13.39c-48.896,6.737 -129.566,29.882 -168.602,36.551c-21.589,3.689 -50.483,6.171 -72.072,6.533c-21.309,0.357 -108.418,-11.771 -132.28,-20.265c-27.776,-9.889 -66.447,-34.386 -88.452,-52.95c-20.964,-17.685 -49.55,-54.426 -57.541,-79.501c-13.322,-41.809 21.874,-108.685 35.922,-115.975c16.702,-8.667 -38.166,-23.403 -64.168,-15.67c-25.534,7.594 -112.909,76.029 -112.909,76.029l-105.975,101.767l-33.179,138.412l73.92,138.983c-0,0 71.551,89.102 95.31,109.043c23.758,19.941 152.449,129.384 152.449,129.384l139.46,60.377l268.673,74.187l169.249,-68.511l182.41,-165.764l71.596,-140.831c-0,0 -39.433,-105.245 -79.73,-167.877Z" style="fill:url(#_Linear6);stroke:#000;stroke-width:20.83px;"/></g></g><path d="M912.615,592.391c15.272,5.437 28.935,10.209 41.169,14.408c115.498,39.639 97.312,31.251 116.582,47.27c133.125,110.664 189.337,289.573 129.902,456.525c-78.12,219.441 -327.171,331.517 -555.81,250.122c-228.639,-81.396 -350.841,-325.637 -272.721,-545.078c58.303,-163.773 211.648,-272.322 380.99,-276.121c19.087,-0.428 20.938,3.408 159.888,52.874Zm-7.685,21.59c15.363,5.469 29.107,10.27 41.415,14.494c107.969,37.055 91.357,28.242 109.371,43.216c125.765,104.547 179.112,273.495 122.963,431.217c-73.968,207.776 -310.051,313.287 -526.535,236.218c-216.485,-77.068 -332.785,-308.027 -258.817,-515.802c55.081,-154.724 199.929,-257.307 359.914,-260.896c7.365,-0.165 11.295,0.971 26.899,6.442c20.201,7.083 55.372,20.398 124.79,45.111Z"/><path d="M912.615,592.391c15.272,5.437 28.935,10.209 41.169,14.408c115.498,39.639 97.312,31.251 116.582,47.27c133.125,110.664 189.337,289.573 129.902,456.525c-78.12,219.441 -327.171,331.517 -555.81,250.122c-228.639,-81.396 -350.841,-325.637 -272.721,-545.078c58.303,-163.773 211.648,-272.322 380.99,-276.121c19.087,-0.428 20.938,3.408 159.888,52.874Z" style="fill:#fff;fill-opacity:0.39;"/><path d="M912.615,592.391c15.272,5.437 28.935,10.209 41.169,14.408c115.498,39.639 97.312,31.251 116.582,47.27c133.125,110.664 189.337,289.573 129.902,456.525c-78.12,219.441 -327.171,331.517 -555.81,250.122c-228.639,-81.396 -350.841,-325.637 -272.721,-545.078c58.303,-163.773 211.648,-272.322 380.99,-276.121c19.087,-0.428 20.938,3.408 159.888,52.874Zm-7.685,21.59c15.363,5.469 29.107,10.27 41.415,14.494c107.969,37.055 91.357,28.242 109.371,43.216c125.765,104.547 179.112,273.495 122.963,431.217c-73.968,207.776 -310.051,313.287 -526.535,236.218c-216.485,-77.068 -332.785,-308.027 -258.817,-515.802c55.081,-154.724 199.929,-257.307 359.914,-260.896c7.365,-0.165 11.295,0.971 26.899,6.442c20.201,7.083 55.372,20.398 124.79,45.111Z"/><path d="M796.316,572.449l-75.786,32.037" style="fill:none;stroke:#000;stroke-width:20.83px;"/><path d="M797.04,615.628l46.893,-26.227" style="fill:none;stroke:#000;stroke-width:20.83px;"/><path d="M984.841,736.136l-77.482,36.799" style="fill:none;stroke:#000;stroke-width:20.83px;"/><path d="M1051.5,759.869l-63.721,28.284" style="fill:none;stroke:#000;stroke-width:20.83px;"/><path d="M1144,1077.63l-22.101,51.428l-101.003,58.519l-35.866,49.341l-28.885,24.2l-69.984,-34.426l-234.183,-152.206l-101.776,-70.208l-112.439,-64.68l11.052,-110.263l61.069,-93.153l60.097,-0.415l175.056,59.883l56.025,84.707l198.125,84.815l144.813,112.458Z" style="fill:#e7bc91;"/><path d="M1144,1077.63l-22.101,51.428l-101.003,58.519l-35.866,49.341l-28.885,24.2l-69.984,-34.426l-234.183,-152.206l-101.776,-70.208l-112.439,-64.68l11.052,-110.263l61.069,-93.153l60.097,-0.415l175.056,59.883l56.025,84.707l198.125,84.815l144.813,112.458Zm-25.501,6.575l-13.016,30.286c0,0.001 -95.031,55.059 -95.031,55.059c-2.516,1.458 -4.699,3.426 -6.408,5.777l-34.358,47.268c0,-0 -16.52,13.84 -16.52,13.84c-0,0 -56.694,-27.889 -56.694,-27.889c0,0 -232.9,-151.372 -232.9,-151.372c0,0 -101.54,-70.045 -101.54,-70.045c-0.468,-0.323 -0.949,-0.626 -1.442,-0.91l-100.753,-57.957c0,-0 9.199,-91.772 9.199,-91.772c0,0 52.152,-79.552 52.152,-79.552c-0,-0 45.398,-0.314 45.398,-0.314c0,0 164.991,56.44 164.991,56.44c-0,-0 52.108,78.786 52.108,78.786c2.246,3.394 5.436,6.057 9.178,7.659l195.662,83.761l129.974,100.935Z"/><g transform="matrix(0.845819,0.53347,-0.53347,0.845819,-2661.94,-404.621)"><text x="3438.39px" y="-605.113px" style="font-family:'LifeCraft';font-size:128.113px;">ManaKit</text></g></g></g></g><defs><linearGradient id="_Linear3" x1="0" y1="0" x2="1" y2="0" gradientUnits="userSpaceOnUse" gradientTransform="matrix(280.939,100.014,-106.794,299.985,841.485,355.146)"><stop offset="0" style="stop-color:#c28c50;stop-opacity:1"/><stop offset="1" style="stop-color:#a98e70;stop-opacity:1"/></linearGradient><linearGradient id="_Linear5" x1="0" y1="0" x2="1" y2="0" gradientUnits="userSpaceOnUse" gradientTransform="matrix(1080.9,384.799,-229.393,644.364,190.496,857.553)"><stop offset="0" style="stop-color:#5dd2f8;stop-opacity:1"/><stop offset="0.47" style="stop-color:#4dbff1;stop-opacity:1"/><stop offset="1" style="stop-color:#228ddf;stop-opacity:1"/></linearGradient><linearGradient id="_Linear6" x1="0" y1="0" x2="1" y2="0" gradientUnits="userSpaceOnUse" gradientTransform="matrix(1080.9,384.799,-229.393,644.364,190.496,857.553)"><stop offset="0" style="stop-color:#5dd2f8;stop-opacity:1"/><stop offset="0.47" style="stop-color:#4dbff1;stop-opacity:1"/><stop offset="1" style="stop-color:#228ddf;stop-opacity:1"/></linearGradient></defs></svg>